<svg version="1.2" xmlns="http://www.w3.org/2000/svg" viewBox="0 0 520 520" width="520" height="520"><style>.a{fill:#fff}.b{fill:#006dff}.c{fill:#2482ff}.d{fill:#00aeef}</style><path fill-rule="evenodd" class="a" d="m260 520c-143.8 0-260-116.2-260-260 0-143.8 116.2-260 260-260 143.8 0 260 116.2 260 260 0 143.8-116.2 260-260 260z"/><path class="b" d="m186.2 298.6c-0.1 19.1-0.5 38.3-0.2 57.4 0.2 9.3 8.5 16.5 18.6 16.6 16.2 0.3 32.5 0.2 48.7 0.2 27.5-0.1 54.9-0.3 82.4-0.4 35.6-0.1 67.3 25.5 74.5 60.4 1 5 1.1 10.3 1.6 16.3-2.8 0-4.9 0-7 0-74.4 0-148.8-0.1-223.2 0-28.5 0-58.4-22.4-67-48.5-3.2-9.5-4.8-19.9-5.1-30-0.8-22.3-0.4-44.7-0.3-67.1 0.1-2.8 1.1-6.4 3-8.3 24.2-24.3 48.6-48.5 73.3-72.2 0.5 25.6 0.6 50.6 0.7 75.6z"/><path class="c" d="m186.7 298.6c-0.6-25-0.7-50-0.8-75.5 1.8-0.6 3.6-0.8 5.4-0.8q107.2-0.1 214.4-0.1c1.6 0 3.2 0 5.1 0 1.7 7.9 0.1 15.2-2 22.4-9.4 31.5-39.4 53.9-72.2 53.9-49.8 0.1-99.6 0.1-149.9 0.1z"/><path class="d" d="m213 148.6c-32.9 0-65.2 0.1-97.5 0.1-6.6 0-6.9-0.6-6-7.2 2.5-18.8 9.2-35.6 23.3-48.8 14-13 30.2-20.8 49.6-20.9q110.8-0.5 221.5-0.8c2.5 0 4.9 0.6 7.8 0.9-0.6 30.4-14.3 52.3-39.9 67.1-12.6 7.2-26.3 9.7-40.7 9.7-39.2-0.1-78.4-0.1-118.1-0.1z"/></svg>